<?xml version="1.0" standalone="no"?>
<!DOCTYPE svg PUBLIC "-//W3C//DTD SVG 20010904//EN"
 "http://www.w3.org/TR/2001/REC-SVG-20010904/DTD/svg10.dtd">
<svg version="1.0" xmlns="http://www.w3.org/2000/svg"
 width="512.000000pt" height="512.000000pt" viewBox="0 0 512.000000 512.000000"
 preserveAspectRatio="xMidYMid meet">
<metadata>
Created by potrace 1.11, written by Peter Selinger 2001-2013
</metadata>
<g transform="translate(0.000000,512.000000) scale(0.100000,-0.100000)"
fill="#000000" stroke="none">
<path d="M2598 5100 c-107 -33 -190 -97 -249 -189 -17 -27 -37 -43 -70 -54
-263 -94 -275 -464 -19 -586 l55 -26 405 0 405 0 68 33 c251 124 229 495 -35
581 -28 9 -47 26 -73 66 -104 156 -310 230 -487 175z"/>
<path d="M590 4793 c-41 -6 -143 -44 -175 -66 -50 -33 -115 -100 -137 -139
-16 -28 -33 -41 -66 -52 -218 -75 -281 -362 -115 -524 93 -90 116 -93 564 -92
401 0 430 4 506 59 90 65 133 156 130 272 -4 134 -84 242 -210 285 -28 10 -49
23 -52 35 -4 11 -33 48 -66 83 -59 63 -146 116 -215 131 -41 8 -132 13 -164 8z"/>
<path d="M4350 4508 c-116 -18 -234 -95 -300 -199 -18 -27 -39 -49 -46 -49
-26 0 -98 -41 -137 -79 -21 -20 -51 -58 -65 -86 -23 -43 -27 -62 -27 -140 0
-76 4 -98 24 -137 46 -90 123 -150 218 -171 76 -17 758 -15 820 2 98 27 190
119 219 218 45 154 -42 329 -189 381 -29 10 -56 27 -65 42 -102 164 -270 245
-452 218z"/>
<path d="M1866 4090 c-69 -21 -84 -47 -508 -895 -263 -528 -410 -831 -411
-852 0 -18 7 -41 17 -51 16 -19 15 -23 -25 -105 -41 -81 -44 -85 -76 -85 -18
0 -40 -5 -48 -12 -8 -7 -195 -372 -415 -812 l-400 -801 0 -214 c0 -214 0 -214
25 -238 l24 -25 2511 0 2511 0 24 25 c25 24 25 24 25 238 l0 214 -290 581
c-302 604 -297 595 -359 597 -21 0 -31 14 -67 85 -41 84 -42 85 -23 106 10 11
19 32 19 46 0 14 -142 309 -315 655 -284 568 -319 633 -352 656 -51 35 -115
41 -171 17 -50 -22 -74 -48 -102 -107 -11 -24 -23 -43 -26 -43 -3 0 -19 11
-36 25 -72 60 -239 135 -343 153 -50 9 -260 9 -300 1 -63 -14 -120 -31 -173
-55 -30 -13 -56 -24 -58 -24 -2 0 -98 190 -214 423 -117 232 -221 433 -233
446 -47 51 -137 73 -211 51z"/>
</g>
</svg>
